<?xml version="1.0" encoding="UTF-8" standalone="no"?>
<!-- Created with Inkscape (http://www.inkscape.org/) -->

<svg
   xmlns:dc="http://purl.org/dc/elements/1.1/"
   xmlns:cc="http://creativecommons.org/ns#"
   xmlns:rdf="http://www.w3.org/1999/02/22-rdf-syntax-ns#"
   xmlns:svg="http://www.w3.org/2000/svg"
   xmlns="http://www.w3.org/2000/svg"
   xmlns:sodipodi="http://sodipodi.sourceforge.net/DTD/sodipodi-0.dtd"
   xmlns:inkscape="http://www.inkscape.org/namespaces/inkscape"
   version="1.1"
   id="svg2"
   xml:space="preserve"
   width="64"
   height="40"
   viewBox="0 0 64 40"
   sodipodi:docname="benthos_logo.svg"
   inkscape:version="0.92.3 (2405546, 2018-03-11)"><metadata
     id="metadata8"><rdf:RDF><cc:Work
         rdf:about=""><dc:format>image/svg+xml</dc:format><dc:type
           rdf:resource="http://purl.org/dc/dcmitype/StillImage" /><dc:title></dc:title></cc:Work></rdf:RDF></metadata><defs
     id="defs6" /><sodipodi:namedview
     pagecolor="#ffffff"
     bordercolor="#666666"
     borderopacity="1"
     objecttolerance="10"
     gridtolerance="10"
     guidetolerance="10"
     inkscape:pageopacity="0"
     inkscape:pageshadow="2"
     inkscape:window-width="2560"
     inkscape:window-height="1376"
     id="namedview4"
     showgrid="false"
     inkscape:zoom="8.010266"
     inkscape:cx="39.22773"
     inkscape:cy="37.023246"
     inkscape:window-x="2560"
     inkscape:window-y="27"
     inkscape:window-maximized="1"
     inkscape:current-layer="g10" /><g
     id="g10"
     inkscape:groupmode="layer"
     inkscape:label="ink_ext_XXXXXX"
     transform="matrix(1.3333333,0,0,-1.3333333,0,40.00001)"><path
       style="fill:#ffffff;fill-opacity:1;fill-rule:evenodd;stroke:none;stroke-width:0.48530945;stroke-miterlimit:4;stroke-dasharray:none;stroke-opacity:1"
       d="M 23.202017,28.553875 C 12.569677,28.553875 6.8207557,21.180722 4.9355629,14.6333 3.2600397,14.543066 0.36478285,14.163523 0.04751488,12.615987 -0.40152807,10.425602 2.4623477,7.1981345 3.162601,7.8561035 l 1.1138463,1.046584 c 0.071475,-0.789596 0.2237579,-1.501216 0.4554731,-2.103263 2.2402708,-5.82090527 9.4999136,-2.810244 11.0158466,-2.644297 1.226077,0.133938 2.696753,-0.841192 5.431704,-0.930004 2.734941,-0.08863 4.227027,0.699213 6.577292,0.362069 2.350274,-0.337161 6.000125,-3.58617117 13.414663,-1.37652 1.586635,0.47879 2.594598,1.495701 3.109113,2.85989 1.165691,-0.191674 4.144125,3.133712 3.668464,5.8722285 -0.293563,1.690107 -2.721261,2.439307 -4.769597,2.772085 -3.179529,7.126788 -11.00176,14.838999 -19.977389,14.838999 z m -8.096924,-9.503704 c 0.01602,0.0016 0.03202,0.0016 0.04779,0 0.03607,-0.0041 0.07149,-0.01832 0.104998,-0.04481 0.26782,-0.21246 -0.175238,-0.712546 -0.175238,-0.712546 -0.703203,-0.872136 -1.091765,-1.978478 -1.015202,-3.156557 0.167928,-2.582474 2.506956,-4.532443 5.225449,-4.355973 2.091255,0.135382 3.798919,1.489527 4.401182,3.282852 0,0 0.168473,0.451982 0.445013,0.353098 0.276545,-0.09887 0.11882,-0.511146 0.11882,-0.511146 -0.478382,-1.43236 -1.58814,-2.612197 -3.032889,-3.229431 1.71812,-0.03772 3.491354,-0.277864 5.672322,-1.1799785 3.609274,-1.49306 7.67421,-4.417827 7.780078,-4.48263 0.105826,-0.06446 0.176262,-0.432545 0.09977,-0.596717 -0.07652,-0.163934 -0.323624,-0.114697 -0.412513,-0.05605 -0.0889,0.05886 -4.517248,2.685495 -7.581285,3.952808 -3.064049,1.267311 -5.694066,1.11831 -9.075876,1.121315 -4.383773,0.005 -8.8148556,-3.635356 -8.9563053,-3.660614 -0.1414731,-0.0298 -0.4789224,-0.126888 -0.5660758,0.07734 -0.07255,0.169504 0.073548,0.505666 0.2297919,0.61129 0.1462846,0.09918 4.4246142,3.5852645 8.5673442,4.0940495 -1.182282,0.431826 -2.173778,1.24204 -2.798623,2.286338 -0.628865,-0.590112 -1.450684,-0.929287 -2.313238,-0.941965 -1.9256837,-0.02493 -3.5065272,1.541627 -3.5309671,3.498827 -0.024434,1.957248 1.5166924,3.56386 3.4424091,3.588877 l 2.92e-4,3.79e-4 h 2.91e-4 c 0.900058,0.01019 1.764082,-0.334427 2.416742,-0.953545 0.122845,0.204245 0.259473,0.400155 0.409154,0.58663 0,0 0.256501,0.401376 0.49656,0.428193 z m 13.107151,-0.02426 c 1.925902,0.02509 3.506892,-1.541395 3.531329,-3.498826 0.02442,-1.95734 -1.516961,-3.564231 -3.44278,-3.589249 -1.92591,-0.02509 -3.506892,1.541396 -3.531331,3.498826 -0.02442,1.957341 1.516966,3.564232 3.442782,3.589249 z m 0.977831,-1.483749 c -0.190812,0.0086 -0.352143,-0.0411 -0.440526,-0.162158 -0.282866,-0.387501 0.252439,-0.760805 0.565324,-1.308889 0.312804,-0.548057 0.268867,-1.325305 0.865738,-1.125797 0.596817,0.199797 0.600026,1.189667 0.239887,1.83386 -0.247596,0.443018 -0.810634,0.744041 -1.230423,0.762984 z m -16.394496,-0.03699 c -0.190806,0.0086 -0.352139,-0.04101 -0.440525,-0.162158 v -3.78e-4 c -0.282864,-0.387494 0.252433,-0.760427 0.565327,-1.308508 0.250112,-0.438215 0.273554,-1.020866 0.577657,-1.135515 -0.0074,0.06562 -0.01395,0.131207 -0.01831,0.197659 -0.04507,0.691109 0.05389,1.359791 0.270524,1.980708 -0.279364,0.253167 -0.652989,0.414582 -0.954676,0.428193 z m 17.29386,-2.759374 a 0.46401614,0.38159606 82.483561 0 1 -0.392321,-0.440162 0.46401614,0.38159606 82.483561 0 1 0.343385,-0.484618 0.46401614,0.38159606 82.483561 0 1 0.419227,0.439411 0.46401614,0.38159606 82.483561 0 1 -0.343011,0.484617 0.46401614,0.38159606 82.483561 0 1 -0.02723,7.28e-4 z m -16.560383,-0.08706 a 0.46401611,0.38159609 82.483559 0 1 -0.226803,-0.390086 0.46401611,0.38159609 82.483559 0 1 0.343375,-0.484997 0.46401611,0.38159609 82.483559 0 1 0.09566,0.0093 c -0.09564,0.278168 -0.166411,0.56776 -0.212228,0.865737 z"
       id="path9979"
       inkscape:connector-curvature="0" /></g></svg>