<?xml version="1.0" encoding="UTF-8" standalone="no"?>
<!-- Created with Inkscape (http://www.inkscape.org/) -->

<svg
   xmlns:dc="http://purl.org/dc/elements/1.1/"
   xmlns:cc="http://creativecommons.org/ns#"
   xmlns:rdf="http://www.w3.org/1999/02/22-rdf-syntax-ns#"
   xmlns:svg="http://www.w3.org/2000/svg"
   xmlns="http://www.w3.org/2000/svg"
   xmlns:sodipodi="http://sodipodi.sourceforge.net/DTD/sodipodi-0.dtd"
   xmlns:inkscape="http://www.inkscape.org/namespaces/inkscape"
   version="1.1"
   id="svg2"
   xml:space="preserve"
   width="64"
   height="64"
   viewBox="0 0 64 64"
   sodipodi:docname="github_logo.svg"
   inkscape:version="0.92.3 (2405546, 2018-03-11)"><metadata
     id="metadata8"><rdf:RDF><cc:Work
         rdf:about=""><dc:format>image/svg+xml</dc:format><dc:type
           rdf:resource="http://purl.org/dc/dcmitype/StillImage" /><dc:title></dc:title></cc:Work></rdf:RDF></metadata><defs
     id="defs6" /><sodipodi:namedview
     pagecolor="#ffffff"
     bordercolor="#666666"
     borderopacity="1"
     objecttolerance="10"
     gridtolerance="10"
     guidetolerance="10"
     inkscape:pageopacity="0"
     inkscape:pageshadow="2"
     inkscape:window-width="2560"
     inkscape:window-height="1376"
     id="namedview4"
     showgrid="false"
     inkscape:zoom="8.010266"
     inkscape:cx="45.950705"
     inkscape:cy="31.543351"
     inkscape:window-x="0"
     inkscape:window-y="27"
     inkscape:window-maximized="1"
     inkscape:current-layer="g10" /><g
     id="g10"
     inkscape:groupmode="layer"
     inkscape:label="ink_ext_XXXXXX"
     transform="matrix(1.3333333,0,0,-1.3333333,0,64.00001)"><path
       inkscape:connector-curvature="0"
       id="path106"
       style="fill:#ffffff;fill-opacity:1;fill-rule:evenodd;stroke:none;stroke-width:0.14733417"
       d="M 23.99779,47.407628 C 10.746554,47.407628 -1.9999998e-7,36.662547 -1.9999998e-7,23.406891 -1.9999998e-7,12.80325 6.8760854,3.8084974 16.413026,0.63491918 17.6138,0.41391788 18.051382,1.1550088 18.051382,1.7914925 c 0,0.5701832 -0.02063,2.0788852 -0.03241,4.0811571 -6.675712,-1.449769 -8.0842266,3.217778 -8.0842266,3.217778 -1.091746,2.7728304 -2.665275,3.5109744 -2.665275,3.5109744 -2.179072,1.488075 0.165014,1.458608 0.165014,1.458608 2.408914,-0.169434 3.6759876,-2.473741 3.6759876,-2.473741 2.140766,-3.6671474 5.617852,-2.6078154 6.985114,-1.9934314 0.218054,1.5499564 0.838331,2.6078154 1.523435,3.2074654 -5.329077,0.605544 -10.9321956,2.665275 -10.9321956,11.861875 0,2.619601 0.935572,4.763314 2.4707936,6.439977 -0.247521,0.607016 -1.071119,3.048344 0.235735,6.351576 0,0 2.014058,0.645324 6.599098,-2.460481 1.913871,0.53335 3.967709,0.798552 6.008287,0.808865 2.039105,-0.01031 4.09147,-0.275515 6.008288,-0.808865 4.582093,3.105805 6.593205,2.460481 6.593205,2.460481 1.3098,-3.303232 0.486202,-5.74456 0.240154,-6.351576 1.538169,-1.676663 2.466374,-3.820376 2.466374,-6.439977 0,-9.220173 -5.611958,-11.248965 -10.957242,-11.842721 0.860431,-0.741091 1.628042,-2.205593 1.628042,-4.4435994 0,-3.208939 -0.02947,-5.7976006 -0.02947,-6.5843651 0,-0.6423771 0.433163,-1.38936132 1.650143,-1.15510002 9.529575,3.18094492 16.399768,12.16980352 16.399768,22.77049852 0,13.255656 -10.746555,24.000737 -24.002211,24.000737" /></g></svg>